<?xml version="1.0" encoding="UTF-8" standalone="no"?>
<!-- Created with Inkscape (http://www.inkscape.org/) -->

<svg
   width="210mm"
   height="297mm"
   viewBox="0 0 210 297"
   version="1.1"
   id="svg5"
   sodipodi:docname="Traction_uniax.svg"
   inkscape:version="1.1.2 (0a00cf5339, 2022-02-04)"
   xmlns:inkscape="http://www.inkscape.org/namespaces/inkscape"
   xmlns:sodipodi="http://sodipodi.sourceforge.net/DTD/sodipodi-0.dtd"
   xmlns:xlink="http://www.w3.org/1999/xlink"
   xmlns="http://www.w3.org/2000/svg"
   xmlns:svg="http://www.w3.org/2000/svg">
  <sodipodi:namedview
     id="namedview7"
     pagecolor="#ffffff"
     bordercolor="#666666"
     borderopacity="1.0"
     inkscape:pageshadow="2"
     inkscape:pageopacity="0.0"
     inkscape:pagecheckerboard="0"
     inkscape:document-units="mm"
     showgrid="false"
     inkscape:zoom="1.3932941"
     inkscape:cx="369.26878"
     inkscape:cy="415.92082"
     inkscape:window-width="1846"
     inkscape:window-height="1016"
     inkscape:window-x="0"
     inkscape:window-y="0"
     inkscape:window-maximized="1"
     inkscape:current-layer="layer1" />
  <defs
     id="defs2">
    <marker
       style="overflow:visible;"
       id="Arrow2Lend"
       refX="0.0"
       refY="0.0"
       orient="auto"
       inkscape:stockid="Arrow2Lend"
       inkscape:isstock="true">
      <path
         transform="scale(1.1) rotate(180) translate(1,0)"
         d="M 8.7185878,4.0337352 L -2.2072895,0.016013256 L 8.7185884,-4.0017078 C 6.9730900,-1.6296469 6.9831476,1.6157441 8.7185878,4.0337352 z "
         style="stroke:context-stroke;fill-rule:evenodd;fill:context-stroke;stroke-width:0.62500000;stroke-linejoin:round;"
         id="path1732" />
    </marker>
    <marker
       style="overflow:visible"
       id="Arrow2Lend-6"
       refX="0"
       refY="0"
       orient="auto"
       inkscape:stockid="Arrow2Lend"
       inkscape:isstock="true">
      <path
         transform="matrix(-1.1,0,0,-1.1,-1.1,0)"
         d="M 8.7185878,4.0337352 -2.2072895,0.01601326 8.7185884,-4.0017078 c -1.7454984,2.3720609 -1.7354408,5.6174519 -6e-7,8.035443 z"
         style="fill:context-stroke;fill-rule:evenodd;stroke:context-stroke;stroke-width:0.625;stroke-linejoin:round"
         id="path1732-7" />
    </marker>
    <marker
       style="overflow:visible"
       id="Arrow2Lend-6-3"
       refX="0"
       refY="0"
       orient="auto"
       inkscape:stockid="Arrow2Lend"
       inkscape:isstock="true">
      <path
         transform="matrix(-1.1,0,0,-1.1,-1.1,0)"
         d="M 8.7185878,4.0337352 -2.2072895,0.01601326 8.7185884,-4.0017078 c -1.7454984,2.3720609 -1.7354408,5.6174519 -6e-7,8.035443 z"
         style="fill:context-stroke;fill-rule:evenodd;stroke:context-stroke;stroke-width:0.625;stroke-linejoin:round"
         id="path1732-7-5" />
    </marker>
    <marker
       style="overflow:visible"
       id="Arrow2Lend-6-3-2"
       refX="0"
       refY="0"
       orient="auto"
       inkscape:stockid="Arrow2Lend"
       inkscape:isstock="true">
      <path
         transform="matrix(-1.1,0,0,-1.1,-1.1,0)"
         d="M 8.7185878,4.0337352 -2.2072895,0.01601326 8.7185884,-4.0017078 c -1.7454984,2.3720609 -1.7354408,5.6174519 -6e-7,8.035443 z"
         style="fill:context-stroke;fill-rule:evenodd;stroke:context-stroke;stroke-width:0.625;stroke-linejoin:round"
         id="path1732-7-5-9" />
    </marker>
    <marker
       style="overflow:visible"
       id="Arrow2Lend-2"
       refX="0"
       refY="0"
       orient="auto"
       inkscape:stockid="Arrow2Lend"
       inkscape:isstock="true">
      <path
         transform="matrix(-1.1,0,0,-1.1,-1.1,0)"
         d="M 8.7185878,4.0337352 -2.2072895,0.01601326 8.7185884,-4.0017078 c -1.7454984,2.3720609 -1.7354408,5.6174519 -6e-7,8.035443 z"
         style="fill:context-stroke;fill-rule:evenodd;stroke:context-stroke;stroke-width:0.625;stroke-linejoin:round"
         id="path1732-70" />
    </marker>
    <marker
       style="overflow:visible"
       id="Arrow2Lend-2-3"
       refX="0"
       refY="0"
       orient="auto"
       inkscape:stockid="Arrow2Lend"
       inkscape:isstock="true">
      <path
         transform="matrix(-1.1,0,0,-1.1,-1.1,0)"
         d="M 8.7185878,4.0337352 -2.2072895,0.01601326 8.7185884,-4.0017078 c -1.7454984,2.3720609 -1.7354408,5.6174519 -6e-7,8.035443 z"
         style="fill:context-stroke;fill-rule:evenodd;stroke:context-stroke;stroke-width:0.625;stroke-linejoin:round"
         id="path1732-70-6" />
    </marker>
    <g
       id="g2359">
      <symbol
         overflow="visible"
         id="symbol5771">
        <path
           style="stroke:none;"
           d=""
           id="path8670" />
      </symbol>
      <symbol
         overflow="visible"
         id="symbol6025">
        <path
           style="stroke:none;"
           d="M 2.21875 -2.171875 C 2.875 -2.171875 3.53125 -2.234375 3.953125 -2.375 C 4.796875 -2.65625 4.9375 -3.234375 4.9375 -3.546875 C 4.9375 -4.125 4.390625 -4.5 3.5625 -4.5 C 1.765625 -4.5 0.484375 -3.265625 0.484375 -1.71875 C 0.484375 -0.5625 1.25 0.078125 2.578125 0.078125 C 2.828125 0.078125 3.515625 0.0625 4.109375 -0.15625 C 4.6875 -0.390625 5.09375 -0.796875 5.09375 -0.921875 C 5.09375 -1 4.9375 -1.171875 4.84375 -1.171875 C 4.78125 -1.171875 4.765625 -1.140625 4.6875 -1.0625 C 4.15625 -0.5 3.375 -0.28125 2.609375 -0.28125 C 1.890625 -0.28125 1.625 -0.671875 1.625 -1.25 C 1.625 -1.4375 1.671875 -1.765625 1.78125 -2.171875 Z M 1.859375 -2.53125 C 2.046875 -3.265625 2.28125 -3.53125 2.453125 -3.6875 C 2.796875 -4.03125 3.265625 -4.140625 3.5625 -4.140625 C 3.921875 -4.140625 4.34375 -3.984375 4.34375 -3.53125 C 4.34375 -2.53125 2.828125 -2.53125 1.859375 -2.53125 Z M 1.859375 -2.53125 "
           id="path2307" />
      </symbol>
      <symbol
         overflow="visible"
         id="symbol4630">
        <path
           style="stroke:none;"
           d=""
           id="path4584" />
      </symbol>
      <symbol
         overflow="visible"
         id="symbol1164">
        <path
           style="stroke:none;"
           d="M 1.734375 -0.734375 C 1.671875 -0.5 1.4375 -0.125 1.078125 -0.125 C 1.0625 -0.125 0.84375 -0.125 0.703125 -0.21875 C 0.984375 -0.3125 1.015625 -0.5625 1.015625 -0.609375 C 1.015625 -0.765625 0.890625 -0.859375 0.734375 -0.859375 C 0.53125 -0.859375 0.328125 -0.703125 0.328125 -0.4375 C 0.328125 -0.09375 0.71875 0.0625 1.0625 0.0625 C 1.390625 0.0625 1.671875 -0.125 1.84375 -0.421875 C 2.015625 -0.0625 2.390625 0.0625 2.671875 0.0625 C 3.484375 0.0625 3.90625 -0.796875 3.90625 -1 C 3.90625 -1.09375 3.8125 -1.09375 3.796875 -1.09375 C 3.6875 -1.09375 3.6875 -1.046875 3.65625 -0.96875 C 3.515625 -0.484375 3.09375 -0.125 2.703125 -0.125 C 2.421875 -0.125 2.28125 -0.3125 2.28125 -0.578125 C 2.28125 -0.765625 2.453125 -1.390625 2.640625 -2.171875 C 2.78125 -2.703125 3.09375 -2.875 3.328125 -2.875 C 3.34375 -2.875 3.546875 -2.875 3.703125 -2.78125 C 3.484375 -2.71875 3.390625 -2.515625 3.390625 -2.390625 C 3.390625 -2.25 3.515625 -2.140625 3.671875 -2.140625 C 3.828125 -2.140625 4.0625 -2.265625 4.0625 -2.5625 C 4.0625 -2.953125 3.609375 -3.078125 3.34375 -3.078125 C 2.984375 -3.078125 2.703125 -2.84375 2.5625 -2.578125 C 2.4375 -2.859375 2.109375 -3.078125 1.71875 -3.078125 C 0.9375 -3.078125 0.5 -2.21875 0.5 -2 C 0.5 -1.921875 0.59375 -1.921875 0.609375 -1.921875 C 0.703125 -1.921875 0.703125 -1.9375 0.75 -2.03125 C 0.921875 -2.578125 1.359375 -2.875 1.703125 -2.875 C 1.9375 -2.875 2.125 -2.75 2.125 -2.421875 C 2.125 -2.28125 2.03125 -1.9375 1.96875 -1.6875 Z M 1.734375 -0.734375 "
           id="path6721" />
      </symbol>
    </g>
    <g
       id="g523">
      <symbol
         overflow="visible"
         id="symbol1539">
        <path
           style="stroke:none;"
           d=""
           id="path1751" />
      </symbol>
      <symbol
         overflow="visible"
         id="symbol2113">
        <path
           style="stroke:none;"
           d="M 2.21875 -2.171875 C 2.875 -2.171875 3.53125 -2.234375 3.953125 -2.375 C 4.796875 -2.65625 4.9375 -3.234375 4.9375 -3.546875 C 4.9375 -4.125 4.390625 -4.5 3.5625 -4.5 C 1.765625 -4.5 0.484375 -3.265625 0.484375 -1.71875 C 0.484375 -0.5625 1.25 0.078125 2.578125 0.078125 C 2.828125 0.078125 3.515625 0.0625 4.109375 -0.15625 C 4.6875 -0.390625 5.09375 -0.796875 5.09375 -0.921875 C 5.09375 -1 4.9375 -1.171875 4.84375 -1.171875 C 4.78125 -1.171875 4.765625 -1.140625 4.6875 -1.0625 C 4.15625 -0.5 3.375 -0.28125 2.609375 -0.28125 C 1.890625 -0.28125 1.625 -0.671875 1.625 -1.25 C 1.625 -1.4375 1.671875 -1.765625 1.78125 -2.171875 Z M 1.859375 -2.53125 C 2.046875 -3.265625 2.28125 -3.53125 2.453125 -3.6875 C 2.796875 -4.03125 3.265625 -4.140625 3.5625 -4.140625 C 3.921875 -4.140625 4.34375 -3.984375 4.34375 -3.53125 C 4.34375 -2.53125 2.828125 -2.53125 1.859375 -2.53125 Z M 1.859375 -2.53125 "
           id="path2007" />
      </symbol>
      <symbol
         overflow="visible"
         id="symbol386">
        <path
           style="stroke:none;"
           d=""
           id="path4184" />
      </symbol>
      <symbol
         overflow="visible"
         id="symbol2759">
        <path
           style="stroke:none;"
           d="M 3.875 -2.625 C 3.90625 -2.71875 3.90625 -2.734375 3.90625 -2.78125 C 3.90625 -2.921875 3.796875 -3 3.671875 -3 C 3.59375 -3 3.46875 -2.96875 3.390625 -2.84375 C 3.359375 -2.796875 3.3125 -2.578125 3.28125 -2.4375 L 3.125 -1.859375 C 3.09375 -1.6875 2.875 -0.8125 2.84375 -0.734375 C 2.84375 -0.734375 2.53125 -0.125 2 -0.125 C 1.515625 -0.125 1.515625 -0.578125 1.515625 -0.703125 C 1.515625 -1.078125 1.671875 -1.515625 1.890625 -2.0625 C 1.96875 -2.28125 2 -2.359375 2 -2.484375 C 2 -2.8125 1.71875 -3.078125 1.34375 -3.078125 C 0.640625 -3.078125 0.328125 -2.125 0.328125 -2 C 0.328125 -1.921875 0.421875 -1.921875 0.453125 -1.921875 C 0.546875 -1.921875 0.546875 -1.953125 0.578125 -2.03125 C 0.75 -2.609375 1.046875 -2.875 1.328125 -2.875 C 1.4375 -2.875 1.5 -2.796875 1.5 -2.640625 C 1.5 -2.46875 1.4375 -2.328125 1.40625 -2.234375 C 1.0625 -1.375 1 -1.125 1 -0.8125 C 1 -0.703125 1 -0.375 1.265625 -0.140625 C 1.484375 0.03125 1.78125 0.0625 1.96875 0.0625 C 2.25 0.0625 2.5 -0.03125 2.71875 -0.25 C 2.640625 0.140625 2.5625 0.4375 2.265625 0.78125 C 2.078125 1 1.796875 1.21875 1.421875 1.21875 C 1.375 1.21875 1.046875 1.21875 0.90625 1 C 1.28125 0.953125 1.28125 0.625 1.28125 0.609375 C 1.28125 0.390625 1.078125 0.34375 1.015625 0.34375 C 0.84375 0.34375 0.609375 0.484375 0.609375 0.8125 C 0.609375 1.15625 0.9375 1.421875 1.4375 1.421875 C 2.140625 1.421875 3 0.875 3.21875 0 Z M 3.875 -2.625 "
           id="path3622" />
      </symbol>
    </g>
    <g
       id="g1926">
      <symbol
         overflow="visible"
         id="symbol1860">
        <path
           style="stroke:none;"
           d=""
           id="path2275" />
      </symbol>
      <symbol
         overflow="visible"
         id="symbol8873">
        <path
           style="stroke:none;"
           d="M 3.484375 -0.5625 C 3.59375 -0.15625 3.953125 0.109375 4.375 0.109375 C 4.71875 0.109375 4.953125 -0.125 5.109375 -0.4375 C 5.28125 -0.796875 5.40625 -1.40625 5.40625 -1.421875 C 5.40625 -1.53125 5.328125 -1.53125 5.296875 -1.53125 C 5.1875 -1.53125 5.1875 -1.484375 5.15625 -1.34375 C 5.015625 -0.78125 4.828125 -0.109375 4.40625 -0.109375 C 4.203125 -0.109375 4.09375 -0.234375 4.09375 -0.5625 C 4.09375 -0.78125 4.21875 -1.25 4.296875 -1.609375 L 4.578125 -2.6875 C 4.609375 -2.828125 4.703125 -3.203125 4.75 -3.359375 C 4.796875 -3.59375 4.890625 -3.96875 4.890625 -4.03125 C 4.890625 -4.203125 4.75 -4.296875 4.609375 -4.296875 C 4.5625 -4.296875 4.296875 -4.28125 4.21875 -3.953125 C 4.03125 -3.21875 3.59375 -1.46875 3.46875 -0.953125 C 3.453125 -0.90625 3.0625 -0.109375 2.328125 -0.109375 C 1.8125 -0.109375 1.71875 -0.5625 1.71875 -0.921875 C 1.71875 -1.484375 2 -2.265625 2.25 -2.953125 C 2.375 -3.265625 2.421875 -3.40625 2.421875 -3.59375 C 2.421875 -4.03125 2.109375 -4.40625 1.609375 -4.40625 C 0.65625 -4.40625 0.296875 -2.953125 0.296875 -2.875 C 0.296875 -2.765625 0.390625 -2.765625 0.40625 -2.765625 C 0.515625 -2.765625 0.515625 -2.796875 0.5625 -2.953125 C 0.8125 -3.8125 1.203125 -4.1875 1.578125 -4.1875 C 1.671875 -4.1875 1.828125 -4.171875 1.828125 -3.859375 C 1.828125 -3.625 1.71875 -3.328125 1.65625 -3.1875 C 1.28125 -2.1875 1.078125 -1.578125 1.078125 -1.09375 C 1.078125 -0.140625 1.765625 0.109375 2.296875 0.109375 C 2.953125 0.109375 3.3125 -0.34375 3.484375 -0.5625 Z M 3.484375 -0.5625 "
           id="path5880" />
      </symbol>
      <symbol
         overflow="visible"
         id="symbol6554">
        <path
           style="stroke:none;"
           d=""
           id="path5431" />
      </symbol>
      <symbol
         overflow="visible"
         id="symbol3873">
        <path
           style="stroke:none;"
           d="M 3.875 -2.625 C 3.90625 -2.71875 3.90625 -2.734375 3.90625 -2.78125 C 3.90625 -2.921875 3.796875 -3 3.671875 -3 C 3.59375 -3 3.46875 -2.96875 3.390625 -2.84375 C 3.359375 -2.796875 3.3125 -2.578125 3.28125 -2.4375 L 3.125 -1.859375 C 3.09375 -1.6875 2.875 -0.8125 2.84375 -0.734375 C 2.84375 -0.734375 2.53125 -0.125 2 -0.125 C 1.515625 -0.125 1.515625 -0.578125 1.515625 -0.703125 C 1.515625 -1.078125 1.671875 -1.515625 1.890625 -2.0625 C 1.96875 -2.28125 2 -2.359375 2 -2.484375 C 2 -2.8125 1.71875 -3.078125 1.34375 -3.078125 C 0.640625 -3.078125 0.328125 -2.125 0.328125 -2 C 0.328125 -1.921875 0.421875 -1.921875 0.453125 -1.921875 C 0.546875 -1.921875 0.546875 -1.953125 0.578125 -2.03125 C 0.75 -2.609375 1.046875 -2.875 1.328125 -2.875 C 1.4375 -2.875 1.5 -2.796875 1.5 -2.640625 C 1.5 -2.46875 1.4375 -2.328125 1.40625 -2.234375 C 1.0625 -1.375 1 -1.125 1 -0.8125 C 1 -0.703125 1 -0.375 1.265625 -0.140625 C 1.484375 0.03125 1.78125 0.0625 1.96875 0.0625 C 2.25 0.0625 2.5 -0.03125 2.71875 -0.25 C 2.640625 0.140625 2.5625 0.4375 2.265625 0.78125 C 2.078125 1 1.796875 1.21875 1.421875 1.21875 C 1.375 1.21875 1.046875 1.21875 0.90625 1 C 1.28125 0.953125 1.28125 0.625 1.28125 0.609375 C 1.28125 0.390625 1.078125 0.34375 1.015625 0.34375 C 0.84375 0.34375 0.609375 0.484375 0.609375 0.8125 C 0.609375 1.15625 0.9375 1.421875 1.4375 1.421875 C 2.140625 1.421875 3 0.875 3.21875 0 Z M 3.875 -2.625 "
           id="path1544" />
      </symbol>
      <symbol
         overflow="visible"
         id="symbol1470">
        <path
           style="stroke:none;"
           d=""
           id="path992" />
      </symbol>
      <symbol
         overflow="visible"
         id="symbol4299">
        <path
           style="stroke:none;"
           d="M 6.84375 -3.265625 C 7 -3.265625 7.1875 -3.265625 7.1875 -3.453125 C 7.1875 -3.65625 7 -3.65625 6.859375 -3.65625 L 0.890625 -3.65625 C 0.75 -3.65625 0.5625 -3.65625 0.5625 -3.453125 C 0.5625 -3.265625 0.75 -3.265625 0.890625 -3.265625 Z M 6.859375 -1.328125 C 7 -1.328125 7.1875 -1.328125 7.1875 -1.53125 C 7.1875 -1.71875 7 -1.71875 6.84375 -1.71875 L 0.890625 -1.71875 C 0.75 -1.71875 0.5625 -1.71875 0.5625 -1.53125 C 0.5625 -1.328125 0.75 -1.328125 0.890625 -1.328125 Z M 6.859375 -1.328125 "
           id="path432" />
      </symbol>
      <symbol
         overflow="visible"
         id="symbol6201">
        <path
           style="stroke:none;"
           d="M 4.578125 -3.1875 C 4.578125 -3.984375 4.53125 -4.78125 4.1875 -5.515625 C 3.734375 -6.484375 2.90625 -6.640625 2.5 -6.640625 C 1.890625 -6.640625 1.171875 -6.375 0.75 -5.453125 C 0.4375 -4.765625 0.390625 -3.984375 0.390625 -3.1875 C 0.390625 -2.4375 0.421875 -1.546875 0.84375 -0.78125 C 1.265625 0.015625 2 0.21875 2.484375 0.21875 C 3.015625 0.21875 3.78125 0.015625 4.21875 -0.9375 C 4.53125 -1.625 4.578125 -2.40625 4.578125 -3.1875 Z M 2.484375 0 C 2.09375 0 1.5 -0.25 1.328125 -1.203125 C 1.21875 -1.796875 1.21875 -2.71875 1.21875 -3.3125 C 1.21875 -3.953125 1.21875 -4.609375 1.296875 -5.140625 C 1.484375 -6.328125 2.234375 -6.421875 2.484375 -6.421875 C 2.8125 -6.421875 3.46875 -6.234375 3.65625 -5.25 C 3.765625 -4.6875 3.765625 -3.9375 3.765625 -3.3125 C 3.765625 -2.5625 3.765625 -1.890625 3.65625 -1.25 C 3.5 -0.296875 2.9375 0 2.484375 0 Z M 2.484375 0 "
           id="path3508" />
      </symbol>
    </g>
    <g
       id="g1592">
      <symbol
         overflow="visible"
         id="symbol6622">
        <path
           style="stroke:none;"
           d=""
           id="path2347" />
      </symbol>
      <symbol
         overflow="visible"
         id="symbol6634">
        <path
           style="stroke:none;"
           d="M 3.484375 -0.5625 C 3.59375 -0.15625 3.953125 0.109375 4.375 0.109375 C 4.71875 0.109375 4.953125 -0.125 5.109375 -0.4375 C 5.28125 -0.796875 5.40625 -1.40625 5.40625 -1.421875 C 5.40625 -1.53125 5.328125 -1.53125 5.296875 -1.53125 C 5.1875 -1.53125 5.1875 -1.484375 5.15625 -1.34375 C 5.015625 -0.78125 4.828125 -0.109375 4.40625 -0.109375 C 4.203125 -0.109375 4.09375 -0.234375 4.09375 -0.5625 C 4.09375 -0.78125 4.21875 -1.25 4.296875 -1.609375 L 4.578125 -2.6875 C 4.609375 -2.828125 4.703125 -3.203125 4.75 -3.359375 C 4.796875 -3.59375 4.890625 -3.96875 4.890625 -4.03125 C 4.890625 -4.203125 4.75 -4.296875 4.609375 -4.296875 C 4.5625 -4.296875 4.296875 -4.28125 4.21875 -3.953125 C 4.03125 -3.21875 3.59375 -1.46875 3.46875 -0.953125 C 3.453125 -0.90625 3.0625 -0.109375 2.328125 -0.109375 C 1.8125 -0.109375 1.71875 -0.5625 1.71875 -0.921875 C 1.71875 -1.484375 2 -2.265625 2.25 -2.953125 C 2.375 -3.265625 2.421875 -3.40625 2.421875 -3.59375 C 2.421875 -4.03125 2.109375 -4.40625 1.609375 -4.40625 C 0.65625 -4.40625 0.296875 -2.953125 0.296875 -2.875 C 0.296875 -2.765625 0.390625 -2.765625 0.40625 -2.765625 C 0.515625 -2.765625 0.515625 -2.796875 0.5625 -2.953125 C 0.8125 -3.8125 1.203125 -4.1875 1.578125 -4.1875 C 1.671875 -4.1875 1.828125 -4.171875 1.828125 -3.859375 C 1.828125 -3.625 1.71875 -3.328125 1.65625 -3.1875 C 1.28125 -2.1875 1.078125 -1.578125 1.078125 -1.09375 C 1.078125 -0.140625 1.765625 0.109375 2.296875 0.109375 C 2.953125 0.109375 3.3125 -0.34375 3.484375 -0.5625 Z M 3.484375 -0.5625 "
           id="path4475" />
      </symbol>
      <symbol
         overflow="visible"
         id="symbol2229">
        <path
           style="stroke:none;"
           d=""
           id="path6860" />
      </symbol>
      <symbol
         overflow="visible"
         id="symbol2647">
        <path
           style="stroke:none;"
           d="M 1.734375 -0.734375 C 1.671875 -0.5 1.4375 -0.125 1.078125 -0.125 C 1.0625 -0.125 0.84375 -0.125 0.703125 -0.21875 C 0.984375 -0.3125 1.015625 -0.5625 1.015625 -0.609375 C 1.015625 -0.765625 0.890625 -0.859375 0.734375 -0.859375 C 0.53125 -0.859375 0.328125 -0.703125 0.328125 -0.4375 C 0.328125 -0.09375 0.71875 0.0625 1.0625 0.0625 C 1.390625 0.0625 1.671875 -0.125 1.84375 -0.421875 C 2.015625 -0.0625 2.390625 0.0625 2.671875 0.0625 C 3.484375 0.0625 3.90625 -0.796875 3.90625 -1 C 3.90625 -1.09375 3.8125 -1.09375 3.796875 -1.09375 C 3.6875 -1.09375 3.6875 -1.046875 3.65625 -0.96875 C 3.515625 -0.484375 3.09375 -0.125 2.703125 -0.125 C 2.421875 -0.125 2.28125 -0.3125 2.28125 -0.578125 C 2.28125 -0.765625 2.453125 -1.390625 2.640625 -2.171875 C 2.78125 -2.703125 3.09375 -2.875 3.328125 -2.875 C 3.34375 -2.875 3.546875 -2.875 3.703125 -2.78125 C 3.484375 -2.71875 3.390625 -2.515625 3.390625 -2.390625 C 3.390625 -2.25 3.515625 -2.140625 3.671875 -2.140625 C 3.828125 -2.140625 4.0625 -2.265625 4.0625 -2.5625 C 4.0625 -2.953125 3.609375 -3.078125 3.34375 -3.078125 C 2.984375 -3.078125 2.703125 -2.84375 2.5625 -2.578125 C 2.4375 -2.859375 2.109375 -3.078125 1.71875 -3.078125 C 0.9375 -3.078125 0.5 -2.21875 0.5 -2 C 0.5 -1.921875 0.59375 -1.921875 0.609375 -1.921875 C 0.703125 -1.921875 0.703125 -1.9375 0.75 -2.03125 C 0.921875 -2.578125 1.359375 -2.875 1.703125 -2.875 C 1.9375 -2.875 2.125 -2.75 2.125 -2.421875 C 2.125 -2.28125 2.03125 -1.9375 1.96875 -1.6875 Z M 1.734375 -0.734375 "
           id="path8742" />
      </symbol>
      <symbol
         overflow="visible"
         id="symbol2251">
        <path
           style="stroke:none;"
           d=""
           id="path2169" />
      </symbol>
      <symbol
         overflow="visible"
         id="symbol1658">
        <path
           style="stroke:none;"
           d="M 6.84375 -3.265625 C 7 -3.265625 7.1875 -3.265625 7.1875 -3.453125 C 7.1875 -3.65625 7 -3.65625 6.859375 -3.65625 L 0.890625 -3.65625 C 0.75 -3.65625 0.5625 -3.65625 0.5625 -3.453125 C 0.5625 -3.265625 0.75 -3.265625 0.890625 -3.265625 Z M 6.859375 -1.328125 C 7 -1.328125 7.1875 -1.328125 7.1875 -1.53125 C 7.1875 -1.71875 7 -1.71875 6.84375 -1.71875 L 0.890625 -1.71875 C 0.75 -1.71875 0.5625 -1.71875 0.5625 -1.53125 C 0.5625 -1.328125 0.75 -1.328125 0.890625 -1.328125 Z M 6.859375 -1.328125 "
           id="path3150" />
      </symbol>
      <symbol
         overflow="visible"
         id="symbol4258">
        <path
           style="stroke:none;"
           d="M 4.578125 -3.1875 C 4.578125 -3.984375 4.53125 -4.78125 4.1875 -5.515625 C 3.734375 -6.484375 2.90625 -6.640625 2.5 -6.640625 C 1.890625 -6.640625 1.171875 -6.375 0.75 -5.453125 C 0.4375 -4.765625 0.390625 -3.984375 0.390625 -3.1875 C 0.390625 -2.4375 0.421875 -1.546875 0.84375 -0.78125 C 1.265625 0.015625 2 0.21875 2.484375 0.21875 C 3.015625 0.21875 3.78125 0.015625 4.21875 -0.9375 C 4.53125 -1.625 4.578125 -2.40625 4.578125 -3.1875 Z M 2.484375 0 C 2.09375 0 1.5 -0.25 1.328125 -1.203125 C 1.21875 -1.796875 1.21875 -2.71875 1.21875 -3.3125 C 1.21875 -3.953125 1.21875 -4.609375 1.296875 -5.140625 C 1.484375 -6.328125 2.234375 -6.421875 2.484375 -6.421875 C 2.8125 -6.421875 3.46875 -6.234375 3.65625 -5.25 C 3.765625 -4.6875 3.765625 -3.9375 3.765625 -3.3125 C 3.765625 -2.5625 3.765625 -1.890625 3.65625 -1.25 C 3.5 -0.296875 2.9375 0 2.484375 0 Z M 2.484375 0 "
           id="path5909" />
      </symbol>
    </g>
    <g
       id="g5432">
      <symbol
         overflow="visible"
         id="symbol823">
        <path
           style="stroke:none;"
           d=""
           id="path5821" />
      </symbol>
      <symbol
         overflow="visible"
         id="symbol4113">
        <path
           style="stroke:none;"
           d="M 3.484375 -0.5625 C 3.59375 -0.15625 3.953125 0.109375 4.375 0.109375 C 4.71875 0.109375 4.953125 -0.125 5.109375 -0.4375 C 5.28125 -0.796875 5.40625 -1.40625 5.40625 -1.421875 C 5.40625 -1.53125 5.328125 -1.53125 5.296875 -1.53125 C 5.1875 -1.53125 5.1875 -1.484375 5.15625 -1.34375 C 5.015625 -0.78125 4.828125 -0.109375 4.40625 -0.109375 C 4.203125 -0.109375 4.09375 -0.234375 4.09375 -0.5625 C 4.09375 -0.78125 4.21875 -1.25 4.296875 -1.609375 L 4.578125 -2.6875 C 4.609375 -2.828125 4.703125 -3.203125 4.75 -3.359375 C 4.796875 -3.59375 4.890625 -3.96875 4.890625 -4.03125 C 4.890625 -4.203125 4.75 -4.296875 4.609375 -4.296875 C 4.5625 -4.296875 4.296875 -4.28125 4.21875 -3.953125 C 4.03125 -3.21875 3.59375 -1.46875 3.46875 -0.953125 C 3.453125 -0.90625 3.0625 -0.109375 2.328125 -0.109375 C 1.8125 -0.109375 1.71875 -0.5625 1.71875 -0.921875 C 1.71875 -1.484375 2 -2.265625 2.25 -2.953125 C 2.375 -3.265625 2.421875 -3.40625 2.421875 -3.59375 C 2.421875 -4.03125 2.109375 -4.40625 1.609375 -4.40625 C 0.65625 -4.40625 0.296875 -2.953125 0.296875 -2.875 C 0.296875 -2.765625 0.390625 -2.765625 0.40625 -2.765625 C 0.515625 -2.765625 0.515625 -2.796875 0.5625 -2.953125 C 0.8125 -3.8125 1.203125 -4.1875 1.578125 -4.1875 C 1.671875 -4.1875 1.828125 -4.171875 1.828125 -3.859375 C 1.828125 -3.625 1.71875 -3.328125 1.65625 -3.1875 C 1.28125 -2.1875 1.078125 -1.578125 1.078125 -1.09375 C 1.078125 -0.140625 1.765625 0.109375 2.296875 0.109375 C 2.953125 0.109375 3.3125 -0.34375 3.484375 -0.5625 Z M 3.484375 -0.5625 "
           id="path113" />
      </symbol>
      <symbol
         overflow="visible"
         id="symbol9085">
        <path
           style="stroke:none;"
           d="M 1.859375 -2.296875 C 2.15625 -2.296875 2.890625 -2.328125 3.390625 -2.53125 C 4.09375 -2.828125 4.140625 -3.421875 4.140625 -3.5625 C 4.140625 -4 3.765625 -4.40625 3.078125 -4.40625 C 1.96875 -4.40625 0.453125 -3.4375 0.453125 -1.6875 C 0.453125 -0.671875 1.046875 0.109375 2.03125 0.109375 C 3.453125 0.109375 4.28125 -0.953125 4.28125 -1.0625 C 4.28125 -1.125 4.234375 -1.203125 4.171875 -1.203125 C 4.109375 -1.203125 4.09375 -1.171875 4.03125 -1.09375 C 3.25 -0.109375 2.15625 -0.109375 2.046875 -0.109375 C 1.265625 -0.109375 1.171875 -0.953125 1.171875 -1.265625 C 1.171875 -1.390625 1.1875 -1.6875 1.328125 -2.296875 Z M 1.390625 -2.515625 C 1.78125 -4.03125 2.8125 -4.1875 3.078125 -4.1875 C 3.53125 -4.1875 3.8125 -3.890625 3.8125 -3.5625 C 3.8125 -2.515625 2.21875 -2.515625 1.796875 -2.515625 Z M 1.390625 -2.515625 "
           id="path3196" />
      </symbol>
      <symbol
         overflow="visible"
         id="symbol7381">
        <path
           style="stroke:none;"
           d=""
           id="path8644" />
      </symbol>
      <symbol
         overflow="visible"
         id="symbol3193">
        <path
           style="stroke:none;"
           d="M 1.734375 -0.734375 C 1.671875 -0.5 1.4375 -0.125 1.078125 -0.125 C 1.0625 -0.125 0.84375 -0.125 0.703125 -0.21875 C 0.984375 -0.3125 1.015625 -0.5625 1.015625 -0.609375 C 1.015625 -0.765625 0.890625 -0.859375 0.734375 -0.859375 C 0.53125 -0.859375 0.328125 -0.703125 0.328125 -0.4375 C 0.328125 -0.09375 0.71875 0.0625 1.0625 0.0625 C 1.390625 0.0625 1.671875 -0.125 1.84375 -0.421875 C 2.015625 -0.0625 2.390625 0.0625 2.671875 0.0625 C 3.484375 0.0625 3.90625 -0.796875 3.90625 -1 C 3.90625 -1.09375 3.8125 -1.09375 3.796875 -1.09375 C 3.6875 -1.09375 3.6875 -1.046875 3.65625 -0.96875 C 3.515625 -0.484375 3.09375 -0.125 2.703125 -0.125 C 2.421875 -0.125 2.28125 -0.3125 2.28125 -0.578125 C 2.28125 -0.765625 2.453125 -1.390625 2.640625 -2.171875 C 2.78125 -2.703125 3.09375 -2.875 3.328125 -2.875 C 3.34375 -2.875 3.546875 -2.875 3.703125 -2.78125 C 3.484375 -2.71875 3.390625 -2.515625 3.390625 -2.390625 C 3.390625 -2.25 3.515625 -2.140625 3.671875 -2.140625 C 3.828125 -2.140625 4.0625 -2.265625 4.0625 -2.5625 C 4.0625 -2.953125 3.609375 -3.078125 3.34375 -3.078125 C 2.984375 -3.078125 2.703125 -2.84375 2.5625 -2.578125 C 2.4375 -2.859375 2.109375 -3.078125 1.71875 -3.078125 C 0.9375 -3.078125 0.5 -2.21875 0.5 -2 C 0.5 -1.921875 0.59375 -1.921875 0.609375 -1.921875 C 0.703125 -1.921875 0.703125 -1.9375 0.75 -2.03125 C 0.921875 -2.578125 1.359375 -2.875 1.703125 -2.875 C 1.9375 -2.875 2.125 -2.75 2.125 -2.421875 C 2.125 -2.28125 2.03125 -1.9375 1.96875 -1.6875 Z M 1.734375 -0.734375 "
           id="path3620" />
      </symbol>
      <symbol
         overflow="visible"
         id="symbol5612">
        <path
           style="stroke:none;"
           d=""
           id="path9940" />
      </symbol>
      <symbol
         overflow="visible"
         id="symbol6610">
        <path
           style="stroke:none;"
           d="M 6.84375 -3.265625 C 7 -3.265625 7.1875 -3.265625 7.1875 -3.453125 C 7.1875 -3.65625 7 -3.65625 6.859375 -3.65625 L 0.890625 -3.65625 C 0.75 -3.65625 0.5625 -3.65625 0.5625 -3.453125 C 0.5625 -3.265625 0.75 -3.265625 0.890625 -3.265625 Z M 6.859375 -1.328125 C 7 -1.328125 7.1875 -1.328125 7.1875 -1.53125 C 7.1875 -1.71875 7 -1.71875 6.84375 -1.71875 L 0.890625 -1.71875 C 0.75 -1.71875 0.5625 -1.71875 0.5625 -1.53125 C 0.5625 -1.328125 0.75 -1.328125 0.890625 -1.328125 Z M 6.859375 -1.328125 "
           id="path1004" />
      </symbol>
      <symbol
         overflow="visible"
         id="symbol3931">
        <path
           style="stroke:none;"
           d="M 2.9375 -6.375 C 2.9375 -6.625 2.9375 -6.640625 2.703125 -6.640625 C 2.078125 -6 1.203125 -6 0.890625 -6 L 0.890625 -5.6875 C 1.09375 -5.6875 1.671875 -5.6875 2.1875 -5.953125 L 2.1875 -0.78125 C 2.1875 -0.421875 2.15625 -0.3125 1.265625 -0.3125 L 0.953125 -0.3125 L 0.953125 0 C 1.296875 -0.03125 2.15625 -0.03125 2.5625 -0.03125 C 2.953125 -0.03125 3.828125 -0.03125 4.171875 0 L 4.171875 -0.3125 L 3.859375 -0.3125 C 2.953125 -0.3125 2.9375 -0.421875 2.9375 -0.78125 Z M 2.9375 -6.375 "
           id="path447" />
      </symbol>
      <symbol
         overflow="visible"
         id="symbol9058">
        <path
           style="stroke:none;"
           d="M 1.265625 -0.765625 L 2.328125 -1.796875 C 3.875 -3.171875 4.46875 -3.703125 4.46875 -4.703125 C 4.46875 -5.84375 3.578125 -6.640625 2.359375 -6.640625 C 1.234375 -6.640625 0.5 -5.71875 0.5 -4.828125 C 0.5 -4.28125 1 -4.28125 1.03125 -4.28125 C 1.203125 -4.28125 1.546875 -4.390625 1.546875 -4.8125 C 1.546875 -5.0625 1.359375 -5.328125 1.015625 -5.328125 C 0.9375 -5.328125 0.921875 -5.328125 0.890625 -5.3125 C 1.109375 -5.96875 1.65625 -6.328125 2.234375 -6.328125 C 3.140625 -6.328125 3.5625 -5.515625 3.5625 -4.703125 C 3.5625 -3.90625 3.078125 -3.125 2.515625 -2.5 L 0.609375 -0.375 C 0.5 -0.265625 0.5 -0.234375 0.5 0 L 4.203125 0 L 4.46875 -1.734375 L 4.234375 -1.734375 C 4.171875 -1.4375 4.109375 -1 4 -0.84375 C 3.9375 -0.765625 3.28125 -0.765625 3.0625 -0.765625 Z M 1.265625 -0.765625 "
           id="path4182" />
      </symbol>
      <symbol
         overflow="visible"
         id="symbol8625">
        <path
           style="stroke:none;"
           d=""
           id="path9185" />
      </symbol>
      <symbol
         overflow="visible"
         id="symbol9135">
        <path
           style="stroke:none;"
           d="M 6.5625 -2.296875 C 6.734375 -2.296875 6.921875 -2.296875 6.921875 -2.5 C 6.921875 -2.6875 6.734375 -2.6875 6.5625 -2.6875 L 1.171875 -2.6875 C 1 -2.6875 0.828125 -2.6875 0.828125 -2.5 C 0.828125 -2.296875 1 -2.296875 1.171875 -2.296875 Z M 6.5625 -2.296875 "
           id="path5856" />
      </symbol>
    </g>
  </defs>
  <g
     inkscape:label="Calque 1"
     inkscape:groupmode="layer"
     id="layer1">
    <rect
       style="fill:#cccccc;fill-opacity:1;stroke:none;stroke-width:0.317902"
       id="rect846"
       width="50"
       height="50"
       x="42.142452"
       y="68.567909"
       ry="0.32451075" />
    <path
       style="fill:#cccccc;fill-opacity:1;stroke:#0000ff;stroke-width:0.616749;stroke-linecap:butt;stroke-linejoin:miter;stroke-miterlimit:4;stroke-dasharray:0.616749, 1.2335;stroke-dashoffset:0;stroke-opacity:1"
       d="m 42.120192,57.630307 0.02227,60.937323"
       id="path1189" />
    <path
       style="fill:#cccccc;fill-opacity:1;stroke:#ff0000;stroke-width:0.665;stroke-linecap:butt;stroke-linejoin:miter;stroke-miterlimit:4;stroke-dasharray:0.665, 1.33;stroke-dashoffset:0;stroke-opacity:1"
       d="m 42.142452,118.56791 70.908238,-0.0222"
       id="path1189-3" />
    <path
       style="fill:#cccccc;fill-opacity:1;stroke:#0000ff;stroke-width:0.265;stroke-linecap:butt;stroke-linejoin:miter;stroke-miterlimit:4;stroke-dasharray:none;stroke-opacity:1;marker-end:url(#Arrow2Lend)"
       d="M 92.142454,68.568 H 126.34279"
       id="path1709"
       sodipodi:nodetypes="cc" />
    <g
       id="g3091"
       transform="matrix(0.93807547,0,0,0.93807547,13.769975,22.084033)"
       style="stroke-width:0.426405;stroke-miterlimit:4;stroke-dasharray:none">
      <path
         style="fill:#cccccc;fill-opacity:1;stroke:#000009;stroke-width:0.426405;stroke-linecap:butt;stroke-linejoin:miter;stroke-miterlimit:4;stroke-dasharray:none;stroke-opacity:1;marker-end:url(#Arrow2Lend-2)"
         d="m 147.26145,102.853 h 26.76148"
         id="path1709-9"
         sodipodi:nodetypes="cc" />
      <path
         style="fill:#cccccc;fill-opacity:1;stroke:#000009;stroke-width:0.426405;stroke-linecap:butt;stroke-linejoin:miter;stroke-miterlimit:4;stroke-dasharray:none;stroke-opacity:1;marker-end:url(#Arrow2Lend-2-3)"
         d="M 147.26145,102.853 V 76.09152"
         id="path1709-9-0"
         sodipodi:nodetypes="cc" />
    </g>
    <path
       style="fill:#cccccc;fill-opacity:1;stroke:#0000ff;stroke-width:0.265;stroke-linecap:butt;stroke-linejoin:miter;stroke-miterlimit:4;stroke-dasharray:none;stroke-opacity:1;marker-end:url(#Arrow2Lend-6)"
       d="M 92.045768,86.169 H 126.24611"
       id="path1709-5"
       sodipodi:nodetypes="cc" />
    <path
       style="fill:#cccccc;fill-opacity:1;stroke:#0000ff;stroke-width:0.265;stroke-linecap:butt;stroke-linejoin:miter;stroke-miterlimit:4;stroke-dasharray:none;stroke-opacity:1;marker-end:url(#Arrow2Lend-6-3)"
       d="M 92.142456,118.568 H 126.3428"
       id="path1709-5-6"
       sodipodi:nodetypes="cc" />
    <path
       style="fill:#cccccc;fill-opacity:1;stroke:#0000ff;stroke-width:0.265;stroke-linecap:butt;stroke-linejoin:miter;stroke-miterlimit:4;stroke-dasharray:none;stroke-opacity:1;marker-end:url(#Arrow2Lend-6-3-2)"
       d="M 92.369925,102.699 H 126.57027"
       id="path1709-5-6-1"
       sodipodi:nodetypes="cc" />
    <g
       inkscape:label=""
       transform="translate(75.9784,32.59045)"
       id="g3157">
      <g
         id="g7922">
        <g
           style="fill:#000000;fill-opacity:1"
           id="g857">
          <use
             xlink:href="#symbol6025"
             x="91.925003"
             y="81.962997"
             id="use470"
             width="100%"
             height="100%" />
        </g>
        <g
           style="fill:#000000;fill-opacity:1"
           id="g2285">
          <use
             xlink:href="#symbol1164"
             x="97.441002"
             y="83.457001"
             id="use8161"
             width="100%"
             height="100%" />
        </g>
      </g>
    </g>
    <g
       inkscape:label=""
       transform="translate(62.107708,8.5394618)"
       id="g3288">
      <g
         id="g5199">
        <g
           style="fill:#000000;fill-opacity:1"
           id="g2279">
          <use
             xlink:href="#symbol2113"
             x="91.925003"
             y="81.962997"
             id="use8790"
             width="100%"
             height="100%" />
        </g>
        <g
           style="fill:#000000;fill-opacity:1"
           id="g7037">
          <use
             xlink:href="#symbol2759"
             x="97.441002"
             y="83.457001"
             id="use9967"
             width="100%"
             height="100%" />
        </g>
      </g>
    </g>
    <g
       inkscape:label=""
       transform="translate(-38.64934,46.445564)"
       id="g3459"
       style="stroke:#ee0009;stroke-opacity:1;fill:#ff0000;fill-opacity:1">
      <g
         id="g8124"
         style="stroke:#ee0009;stroke-opacity:1;fill:#ff0000;fill-opacity:1">
        <g
           style="fill:#ff0000;fill-opacity:1;stroke:#ee0009;stroke-opacity:1"
           id="g6080">
          <use
             xlink:href="#symbol8873"
             x="91.925003"
             y="81.962997"
             id="use7926"
             width="100%"
             height="100%"
             style="stroke:#ee0009;stroke-opacity:1;fill:#ff0000;fill-opacity:1" />
        </g>
        <g
           style="fill:#ff0000;fill-opacity:1;stroke:#ee0009;stroke-opacity:1"
           id="g2861">
          <use
             xlink:href="#symbol3873"
             x="97.627998"
             y="83.457001"
             id="use8839"
             width="100%"
             height="100%"
             style="stroke:#ee0009;stroke-opacity:1;fill:#ff0000;fill-opacity:1" />
        </g>
        <g
           style="fill:#ff0000;fill-opacity:1;stroke:#ee0009;stroke-opacity:1"
           id="g6985">
          <use
             xlink:href="#symbol4299"
             x="105.185"
             y="81.962997"
             id="use1764"
             width="100%"
             height="100%"
             style="stroke:#ee0009;stroke-opacity:1;fill:#ff0000;fill-opacity:1" />
        </g>
        <g
           style="fill:#ff0000;fill-opacity:1;stroke:#ee0009;stroke-opacity:1"
           id="g945">
          <use
             xlink:href="#symbol6201"
             x="115.70351"
             y="81.962997"
             id="use4675"
             width="100%"
             height="100%"
             style="stroke:#ee0009;stroke-opacity:1;fill:#ff0000;fill-opacity:1" />
        </g>
      </g>
    </g>
    <g
       inkscape:label=""
       transform="translate(-80.027009,-19.142579)"
       id="g3690"
       style="fill:#0000ff;fill-opacity:1">
      <g
         id="g6839"
         style="fill:#0000ff;fill-opacity:1">
        <g
           style="fill:#0000ff;fill-opacity:1"
           id="g882">
          <use
             xlink:href="#symbol6634"
             x="91.925003"
             y="81.962997"
             id="use1615"
             width="100%"
             height="100%"
             style="fill:#0000ff;fill-opacity:1" />
        </g>
        <g
           style="fill:#0000ff;fill-opacity:1"
           id="g5712">
          <use
             xlink:href="#symbol2647"
             x="97.627998"
             y="83.457001"
             id="use1737"
             width="100%"
             height="100%"
             style="fill:#0000ff;fill-opacity:1" />
        </g>
        <g
           style="fill:#0000ff;fill-opacity:1"
           id="g9611">
          <use
             xlink:href="#symbol1658"
             x="105.412"
             y="81.962997"
             id="use6983"
             width="100%"
             height="100%"
             style="fill:#0000ff;fill-opacity:1" />
        </g>
        <g
           style="fill:#0000ff;fill-opacity:1"
           id="g7346">
          <use
             xlink:href="#symbol4258"
             x="115.93051"
             y="81.962997"
             id="use9971"
             width="100%"
             height="100%"
             style="fill:#0000ff;fill-opacity:1" />
        </g>
      </g>
    </g>
    <g
       inkscape:label=""
       transform="translate(1.8834338,-17.088567)"
       id="g3985"
       style="fill:#0000ff;fill-opacity:1">
      <g
         id="g8523"
         style="fill:#0000ff;fill-opacity:1">
        <g
           style="fill:#0000ff;fill-opacity:1"
           id="g1292">
          <use
             xlink:href="#symbol4113"
             x="91.925003"
             y="81.962997"
             id="use8432"
             width="100%"
             height="100%"
             style="fill:#0000ff;fill-opacity:1" />
        </g>
        <g
           style="fill:#0000ff;fill-opacity:1"
           id="g5282">
          <use
             xlink:href="#symbol3193"
             x="97.627998"
             y="83.457001"
             id="use8290"
             width="100%"
             height="100%"
             style="fill:#0000ff;fill-opacity:1" />
        </g>
        <g
           style="fill:#0000ff;fill-opacity:1"
           id="g4162">
          <use
             xlink:href="#symbol6610"
             x="105.412"
             y="81.962997"
             id="use4816"
             width="100%"
             height="100%"
             style="fill:#0000ff;fill-opacity:1" />
        </g>
        <g
           style="fill:#0000ff;fill-opacity:1"
           id="g3769">
          <use
             xlink:href="#symbol3931"
             x="115.93051"
             y="81.962997"
             id="use4804"
             width="100%"
             height="100%"
             style="fill:#0000ff;fill-opacity:1" />
        </g>
        <g
           style="fill:#0000ff;fill-opacity:1"
           id="g8803">
          <use
             xlink:href="#symbol9085"
             x="120.909"
             y="81.962997"
             id="use1291"
             width="100%"
             height="100%"
             style="fill:#0000ff;fill-opacity:1" />
        </g>
        <g
           style="fill:#0000ff;fill-opacity:1"
           id="g5908">
          <use
             xlink:href="#symbol9135"
             x="127.762"
             y="81.962997"
             id="use7177"
             width="100%"
             height="100%"
             style="fill:#0000ff;fill-opacity:1" />
        </g>
        <g
           style="fill:#0000ff;fill-opacity:1"
           id="g4527">
          <use
             xlink:href="#symbol9058"
             x="137.724"
             y="81.962997"
             id="use5223"
             width="100%"
             height="100%"
             style="fill:#0000ff;fill-opacity:1" />
        </g>
      </g>
    </g>
  </g>
</svg>
